M48
; DRILL file {KiCad (5.1.10)-1} date 07/19/21 20:33:00
; FORMAT={-:-/ absolute / inch / decimal}
; #@! TF.CreationDate,2021-07-19T20:33:00+08:00
; #@! TF.GenerationSoftware,Kicad,Pcbnew,(5.1.10)-1
; #@! TF.FileFunction,Plated,1,2,PTH
FMAT,2
INCH
T1C0.0157
T2C0.0177
T3C0.0402
T4C0.0472
T5C0.0787
%
G90
G05
T1
X3.35Y-3.15
X3.6Y-3.15
X4.8Y-3.05
X5.44Y-2.82
X5.49Y-3.66
T2
X3.1Y-2.7477
X3.1Y-2.7977
X3.1Y-2.8477
X3.1Y-2.8977
X3.1Y-2.9477
X3.1Y-2.9977
X3.1Y-3.0477
X3.1Y-3.0977
X3.1Y-3.1477
X3.1Y-3.1977
X3.1Y-3.2477
X3.1Y-3.2977
X3.1Y-3.3477
X3.1Y-3.3977
X3.1Y-3.4477
T3
X3.3Y-3.55
X3.4Y-3.55
X3.5Y-3.55
X3.6Y-3.55
X3.8Y-3.55
X3.9Y-3.55
X4.0Y-3.55
X4.1Y-3.55
X4.3Y-3.55
X4.4Y-3.55
X4.5Y-3.55
X4.6Y-3.55
X4.8Y-3.55
X4.9Y-3.55
X5.0Y-3.55
X5.1Y-3.55
X5.2Y-2.6
X5.2Y-2.7
X5.2Y-2.8
X5.2Y-2.9
X5.2Y-3.05
X5.2Y-3.15
X5.2Y-3.25
X5.2Y-3.35
X5.54Y-2.68
X5.54Y-3.03
X5.54Y-3.38
X5.64Y-2.68
X5.64Y-3.03
X5.64Y-3.38
X5.74Y-2.68
X5.74Y-3.03
X5.74Y-3.38
X5.84Y-2.68
X5.84Y-3.03
X5.84Y-3.38
X6.04Y-2.68
X6.04Y-3.03
X6.04Y-3.38
X6.14Y-2.68
X6.14Y-3.03
X6.14Y-3.38
X6.24Y-2.68
X6.24Y-3.03
X6.24Y-3.38
X6.34Y-2.68
X6.34Y-3.03
X6.34Y-3.38
T4
X3.3Y-2.6
X3.3Y-3.32
X4.88Y-2.6
X4.88Y-3.32
T5
X2.9Y-2.6
X2.9Y-3.6
X4.35Y-3.0
X6.49Y-2.6
X6.49Y-3.6
T0
M30
