%TF.GenerationSoftware,KiCad,Pcbnew,(5.1.10)-1*%
%TF.CreationDate,2021-07-19T20:33:02+08:00*%
%TF.ProjectId,FanDCControl,46616e44-4343-46f6-9e74-726f6c2e6b69,rev?*%
%TF.SameCoordinates,Original*%
%TF.FileFunction,Copper,L1,Top*%
%TF.FilePolarity,Positive*%
%FSLAX46Y46*%
G04 Gerber Fmt 4.6, Leading zero omitted, Abs format (unit mm)*
G04 Created by KiCad (PCBNEW (5.1.10)-1) date 2021-07-19 20:33:02*
%MOMM*%
%LPD*%
G01*
G04 APERTURE LIST*
%TA.AperFunction,ComponentPad*%
%ADD10C,0.840000*%
%TD*%
%TA.AperFunction,WasherPad*%
%ADD11C,2.540000*%
%TD*%
%TA.AperFunction,ComponentPad*%
%ADD12R,3.000000X3.000000*%
%TD*%
%TA.AperFunction,ComponentPad*%
%ADD13O,1.730000X2.030000*%
%TD*%
%TA.AperFunction,ComponentPad*%
%ADD14R,1.730000X2.030000*%
%TD*%
%TA.AperFunction,ComponentPad*%
%ADD15O,2.030000X1.730000*%
%TD*%
%TA.AperFunction,ComponentPad*%
%ADD16R,2.030000X1.730000*%
%TD*%
%TA.AperFunction,ViaPad*%
%ADD17C,3.000000*%
%TD*%
%TA.AperFunction,ViaPad*%
%ADD18C,0.800000*%
%TD*%
%TA.AperFunction,Conductor*%
%ADD19C,0.500000*%
%TD*%
%TA.AperFunction,Conductor*%
%ADD20C,0.750000*%
%TD*%
%TA.AperFunction,Conductor*%
%ADD21C,0.250000*%
%TD*%
G04 APERTURE END LIST*
%TO.P,R7,2*%
%TO.N,Net-(LM2596S_LED1-Pad2)*%
%TA.AperFunction,SMDPad,CuDef*%
G36*
G01*
X148482000Y-92144001D02*
X148482000Y-91243999D01*
G75*
G02*
X148731999Y-90994000I249999J0D01*
G01*
X149257001Y-90994000D01*
G75*
G02*
X149507000Y-91243999I0J-249999D01*
G01*
X149507000Y-92144001D01*
G75*
G02*
X149257001Y-92394000I-249999J0D01*
G01*
X148731999Y-92394000D01*
G75*
G02*
X148482000Y-92144001I0J249999D01*
G01*
G37*
%TD.AperFunction*%
%TO.P,R7,1*%
%TO.N,Net-(R6-Pad2)*%
%TA.AperFunction,SMDPad,CuDef*%
G36*
G01*
X146657000Y-92144001D02*
X146657000Y-91243999D01*
G75*
G02*
X146906999Y-90994000I249999J0D01*
G01*
X147432001Y-90994000D01*
G75*
G02*
X147682000Y-91243999I0J-249999D01*
G01*
X147682000Y-92144001D01*
G75*
G02*
X147432001Y-92394000I-249999J0D01*
G01*
X146906999Y-92394000D01*
G75*
G02*
X146657000Y-92144001I0J249999D01*
G01*
G37*
%TD.AperFunction*%
%TD*%
%TO.P,R6,2*%
%TO.N,Net-(R6-Pad2)*%
%TA.AperFunction,SMDPad,CuDef*%
G36*
G01*
X144926000Y-92144001D02*
X144926000Y-91243999D01*
G75*
G02*
X145175999Y-90994000I249999J0D01*
G01*
X145701001Y-90994000D01*
G75*
G02*
X145951000Y-91243999I0J-249999D01*
G01*
X145951000Y-92144001D01*
G75*
G02*
X145701001Y-92394000I-249999J0D01*
G01*
X145175999Y-92394000D01*
G75*
G02*
X144926000Y-92144001I0J249999D01*
G01*
G37*
%TD.AperFunction*%
%TO.P,R6,1*%
%TO.N,Net-(R5-Pad2)*%
%TA.AperFunction,SMDPad,CuDef*%
G36*
G01*
X143101000Y-92144001D02*
X143101000Y-91243999D01*
G75*
G02*
X143350999Y-90994000I249999J0D01*
G01*
X143876001Y-90994000D01*
G75*
G02*
X144126000Y-91243999I0J-249999D01*
G01*
X144126000Y-92144001D01*
G75*
G02*
X143876001Y-92394000I-249999J0D01*
G01*
X143350999Y-92394000D01*
G75*
G02*
X143101000Y-92144001I0J249999D01*
G01*
G37*
%TD.AperFunction*%
%TD*%
%TO.P,R5,2*%
%TO.N,Net-(R5-Pad2)*%
%TA.AperFunction,SMDPad,CuDef*%
G36*
G01*
X141370000Y-92144001D02*
X141370000Y-91243999D01*
G75*
G02*
X141619999Y-90994000I249999J0D01*
G01*
X142145001Y-90994000D01*
G75*
G02*
X142395000Y-91243999I0J-249999D01*
G01*
X142395000Y-92144001D01*
G75*
G02*
X142145001Y-92394000I-249999J0D01*
G01*
X141619999Y-92394000D01*
G75*
G02*
X141370000Y-92144001I0J249999D01*
G01*
G37*
%TD.AperFunction*%
%TO.P,R5,1*%
%TO.N,+8V*%
%TA.AperFunction,SMDPad,CuDef*%
G36*
G01*
X139545000Y-92144001D02*
X139545000Y-91243999D01*
G75*
G02*
X139794999Y-90994000I249999J0D01*
G01*
X140320001Y-90994000D01*
G75*
G02*
X140570000Y-91243999I0J-249999D01*
G01*
X140570000Y-92144001D01*
G75*
G02*
X140320001Y-92394000I-249999J0D01*
G01*
X139794999Y-92394000D01*
G75*
G02*
X139545000Y-92144001I0J249999D01*
G01*
G37*
%TD.AperFunction*%
%TD*%
%TO.P,LM2596S_LED1,2*%
%TO.N,Net-(LM2596S_LED1-Pad2)*%
%TA.AperFunction,SMDPad,CuDef*%
G36*
G01*
X151188000Y-91237750D02*
X151188000Y-92150250D01*
G75*
G02*
X150944250Y-92394000I-243750J0D01*
G01*
X150456750Y-92394000D01*
G75*
G02*
X150213000Y-92150250I0J243750D01*
G01*
X150213000Y-91237750D01*
G75*
G02*
X150456750Y-90994000I243750J0D01*
G01*
X150944250Y-90994000D01*
G75*
G02*
X151188000Y-91237750I0J-243750D01*
G01*
G37*
%TD.AperFunction*%
%TO.P,LM2596S_LED1,1*%
%TO.N,GND*%
%TA.AperFunction,SMDPad,CuDef*%
G36*
G01*
X153063000Y-91237750D02*
X153063000Y-92150250D01*
G75*
G02*
X152819250Y-92394000I-243750J0D01*
G01*
X152331750Y-92394000D01*
G75*
G02*
X152088000Y-92150250I0J243750D01*
G01*
X152088000Y-91237750D01*
G75*
G02*
X152331750Y-90994000I243750J0D01*
G01*
X152819250Y-90994000D01*
G75*
G02*
X153063000Y-91237750I0J-243750D01*
G01*
G37*
%TD.AperFunction*%
%TD*%
%TO.P,R4,2*%
%TO.N,+5V*%
%TA.AperFunction,SMDPad,CuDef*%
G36*
G01*
X137102001Y-65640000D02*
X136201999Y-65640000D01*
G75*
G02*
X135952000Y-65390001I0J249999D01*
G01*
X135952000Y-64864999D01*
G75*
G02*
X136201999Y-64615000I249999J0D01*
G01*
X137102001Y-64615000D01*
G75*
G02*
X137352000Y-64864999I0J-249999D01*
G01*
X137352000Y-65390001D01*
G75*
G02*
X137102001Y-65640000I-249999J0D01*
G01*
G37*
%TD.AperFunction*%
%TO.P,R4,1*%
%TO.N,Net-(5V_LED1-Pad2)*%
%TA.AperFunction,SMDPad,CuDef*%
G36*
G01*
X137102001Y-67465000D02*
X136201999Y-67465000D01*
G75*
G02*
X135952000Y-67215001I0J249999D01*
G01*
X135952000Y-66689999D01*
G75*
G02*
X136201999Y-66440000I249999J0D01*
G01*
X137102001Y-66440000D01*
G75*
G02*
X137352000Y-66689999I0J-249999D01*
G01*
X137352000Y-67215001D01*
G75*
G02*
X137102001Y-67465000I-249999J0D01*
G01*
G37*
%TD.AperFunction*%
%TD*%
%TO.P,R3,2*%
%TO.N,Net-(R2-Pad1)*%
%TA.AperFunction,SMDPad,CuDef*%
G36*
G01*
X136506000Y-91243999D02*
X136506000Y-92144001D01*
G75*
G02*
X136256001Y-92394000I-249999J0D01*
G01*
X135730999Y-92394000D01*
G75*
G02*
X135481000Y-92144001I0J249999D01*
G01*
X135481000Y-91243999D01*
G75*
G02*
X135730999Y-90994000I249999J0D01*
G01*
X136256001Y-90994000D01*
G75*
G02*
X136506000Y-91243999I0J-249999D01*
G01*
G37*
%TD.AperFunction*%
%TO.P,R3,1*%
%TO.N,Net-(12V_LED1-Pad2)*%
%TA.AperFunction,SMDPad,CuDef*%
G36*
G01*
X138331000Y-91243999D02*
X138331000Y-92144001D01*
G75*
G02*
X138081001Y-92394000I-249999J0D01*
G01*
X137555999Y-92394000D01*
G75*
G02*
X137306000Y-92144001I0J249999D01*
G01*
X137306000Y-91243999D01*
G75*
G02*
X137555999Y-90994000I249999J0D01*
G01*
X138081001Y-90994000D01*
G75*
G02*
X138331000Y-91243999I0J-249999D01*
G01*
G37*
%TD.AperFunction*%
%TD*%
%TO.P,R2,2*%
%TO.N,Net-(R1-Pad1)*%
%TA.AperFunction,SMDPad,CuDef*%
G36*
G01*
X133496000Y-92144001D02*
X133496000Y-91243999D01*
G75*
G02*
X133745999Y-90994000I249999J0D01*
G01*
X134271001Y-90994000D01*
G75*
G02*
X134521000Y-91243999I0J-249999D01*
G01*
X134521000Y-92144001D01*
G75*
G02*
X134271001Y-92394000I-249999J0D01*
G01*
X133745999Y-92394000D01*
G75*
G02*
X133496000Y-92144001I0J249999D01*
G01*
G37*
%TD.AperFunction*%
%TO.P,R2,1*%
%TO.N,Net-(R2-Pad1)*%
%TA.AperFunction,SMDPad,CuDef*%
G36*
G01*
X131671000Y-92144001D02*
X131671000Y-91243999D01*
G75*
G02*
X131920999Y-90994000I249999J0D01*
G01*
X132446001Y-90994000D01*
G75*
G02*
X132696000Y-91243999I0J-249999D01*
G01*
X132696000Y-92144001D01*
G75*
G02*
X132446001Y-92394000I-249999J0D01*
G01*
X131920999Y-92394000D01*
G75*
G02*
X131671000Y-92144001I0J249999D01*
G01*
G37*
%TD.AperFunction*%
%TD*%
%TO.P,R1,2*%
%TO.N,+12V*%
%TA.AperFunction,SMDPad,CuDef*%
G36*
G01*
X132696000Y-89211999D02*
X132696000Y-90112001D01*
G75*
G02*
X132446001Y-90362000I-249999J0D01*
G01*
X131920999Y-90362000D01*
G75*
G02*
X131671000Y-90112001I0J249999D01*
G01*
X131671000Y-89211999D01*
G75*
G02*
X131920999Y-88962000I249999J0D01*
G01*
X132446001Y-88962000D01*
G75*
G02*
X132696000Y-89211999I0J-249999D01*
G01*
G37*
%TD.AperFunction*%
%TO.P,R1,1*%
%TO.N,Net-(R1-Pad1)*%
%TA.AperFunction,SMDPad,CuDef*%
G36*
G01*
X134521000Y-89211999D02*
X134521000Y-90112001D01*
G75*
G02*
X134271001Y-90362000I-249999J0D01*
G01*
X133745999Y-90362000D01*
G75*
G02*
X133496000Y-90112001I0J249999D01*
G01*
X133496000Y-89211999D01*
G75*
G02*
X133745999Y-88962000I249999J0D01*
G01*
X134271001Y-88962000D01*
G75*
G02*
X134521000Y-89211999I0J-249999D01*
G01*
G37*
%TD.AperFunction*%
%TD*%
%TO.P,F2,2*%
%TO.N,+12V*%
%TA.AperFunction,SMDPad,CuDef*%
G36*
G01*
X74285000Y-70215000D02*
X73035000Y-70215000D01*
G75*
G02*
X72785000Y-69965000I0J250000D01*
G01*
X72785000Y-69215000D01*
G75*
G02*
X73035000Y-68965000I250000J0D01*
G01*
X74285000Y-68965000D01*
G75*
G02*
X74535000Y-69215000I0J-250000D01*
G01*
X74535000Y-69965000D01*
G75*
G02*
X74285000Y-70215000I-250000J0D01*
G01*
G37*
%TD.AperFunction*%
%TO.P,F2,1*%
%TO.N,Net-(F2-Pad1)*%
%TA.AperFunction,SMDPad,CuDef*%
G36*
G01*
X74285000Y-73015000D02*
X73035000Y-73015000D01*
G75*
G02*
X72785000Y-72765000I0J250000D01*
G01*
X72785000Y-72015000D01*
G75*
G02*
X73035000Y-71765000I250000J0D01*
G01*
X74285000Y-71765000D01*
G75*
G02*
X74535000Y-72015000I0J-250000D01*
G01*
X74535000Y-72765000D01*
G75*
G02*
X74285000Y-73015000I-250000J0D01*
G01*
G37*
%TD.AperFunction*%
%TD*%
%TO.P,F1,2*%
%TO.N,+5V*%
%TA.AperFunction,SMDPad,CuDef*%
G36*
G01*
X73035000Y-77229000D02*
X74285000Y-77229000D01*
G75*
G02*
X74535000Y-77479000I0J-250000D01*
G01*
X74535000Y-78229000D01*
G75*
G02*
X74285000Y-78479000I-250000J0D01*
G01*
X73035000Y-78479000D01*
G75*
G02*
X72785000Y-78229000I0J250000D01*
G01*
X72785000Y-77479000D01*
G75*
G02*
X73035000Y-77229000I250000J0D01*
G01*
G37*
%TD.AperFunction*%
%TO.P,F1,1*%
%TO.N,Net-(F1-Pad1)*%
%TA.AperFunction,SMDPad,CuDef*%
G36*
G01*
X73035000Y-74429000D02*
X74285000Y-74429000D01*
G75*
G02*
X74535000Y-74679000I0J-250000D01*
G01*
X74535000Y-75429000D01*
G75*
G02*
X74285000Y-75679000I-250000J0D01*
G01*
X73035000Y-75679000D01*
G75*
G02*
X72785000Y-75429000I0J250000D01*
G01*
X72785000Y-74679000D01*
G75*
G02*
X73035000Y-74429000I250000J0D01*
G01*
G37*
%TD.AperFunction*%
%TD*%
%TO.P,5V_LED1,2*%
%TO.N,Net-(5V_LED1-Pad2)*%
%TA.AperFunction,SMDPad,CuDef*%
G36*
G01*
X137108250Y-69146000D02*
X136195750Y-69146000D01*
G75*
G02*
X135952000Y-68902250I0J243750D01*
G01*
X135952000Y-68414750D01*
G75*
G02*
X136195750Y-68171000I243750J0D01*
G01*
X137108250Y-68171000D01*
G75*
G02*
X137352000Y-68414750I0J-243750D01*
G01*
X137352000Y-68902250D01*
G75*
G02*
X137108250Y-69146000I-243750J0D01*
G01*
G37*
%TD.AperFunction*%
%TO.P,5V_LED1,1*%
%TO.N,GND*%
%TA.AperFunction,SMDPad,CuDef*%
G36*
G01*
X137108250Y-71021000D02*
X136195750Y-71021000D01*
G75*
G02*
X135952000Y-70777250I0J243750D01*
G01*
X135952000Y-70289750D01*
G75*
G02*
X136195750Y-70046000I243750J0D01*
G01*
X137108250Y-70046000D01*
G75*
G02*
X137352000Y-70289750I0J-243750D01*
G01*
X137352000Y-70777250D01*
G75*
G02*
X137108250Y-71021000I-243750J0D01*
G01*
G37*
%TD.AperFunction*%
%TD*%
%TO.P,12V_LED1,2*%
%TO.N,Net-(12V_LED1-Pad2)*%
%TA.AperFunction,SMDPad,CuDef*%
G36*
G01*
X136456000Y-89205750D02*
X136456000Y-90118250D01*
G75*
G02*
X136212250Y-90362000I-243750J0D01*
G01*
X135724750Y-90362000D01*
G75*
G02*
X135481000Y-90118250I0J243750D01*
G01*
X135481000Y-89205750D01*
G75*
G02*
X135724750Y-88962000I243750J0D01*
G01*
X136212250Y-88962000D01*
G75*
G02*
X136456000Y-89205750I0J-243750D01*
G01*
G37*
%TD.AperFunction*%
%TO.P,12V_LED1,1*%
%TO.N,GND*%
%TA.AperFunction,SMDPad,CuDef*%
G36*
G01*
X138331000Y-89205750D02*
X138331000Y-90118250D01*
G75*
G02*
X138087250Y-90362000I-243750J0D01*
G01*
X137599750Y-90362000D01*
G75*
G02*
X137356000Y-90118250I0J243750D01*
G01*
X137356000Y-89205750D01*
G75*
G02*
X137599750Y-88962000I243750J0D01*
G01*
X138087250Y-88962000D01*
G75*
G02*
X138331000Y-89205750I0J-243750D01*
G01*
G37*
%TD.AperFunction*%
%TD*%
D10*
%TO.P,U2,14*%
%TO.N,Net-(F2-Pad1)*%
X78740000Y-71062000D03*
%TO.P,U2,13*%
X78740000Y-72332000D03*
%TO.P,U2,15*%
X78740000Y-69792000D03*
%TO.P,U2,10*%
%TO.N,GND*%
X78740000Y-76142000D03*
%TO.P,U2,12*%
X78740000Y-73602000D03*
%TO.P,U2,11*%
%TO.N,N/C*%
X78740000Y-74872000D03*
%TO.P,U2,9*%
%TO.N,Net-(F1-Pad1)*%
X78740000Y-77412000D03*
%TO.P,U2,8*%
X78740000Y-78682000D03*
%TO.P,U2,7*%
X78740000Y-79952000D03*
%TO.P,U2,6*%
%TO.N,GND*%
X78740000Y-81222000D03*
%TO.P,U2,5*%
X78740000Y-82492000D03*
%TO.P,U2,4*%
X78740000Y-83762000D03*
%TO.P,U2,3*%
%TO.N,N/C*%
X78740000Y-85032000D03*
%TO.P,U2,2*%
X78740000Y-86302000D03*
%TO.P,U2,1*%
X78740000Y-87572000D03*
D11*
%TO.P,U2,*%
%TO.N,*%
X78740000Y-66522600D03*
X78740000Y-90932000D03*
%TD*%
D12*
%TO.P,U1,4*%
%TO.N,GND*%
X123952000Y-84328000D03*
%TO.P,U1,1*%
%TO.N,+12V*%
X83820000Y-66040000D03*
%TO.P,U1,2*%
%TO.N,GND*%
X83820000Y-84328000D03*
%TO.P,U1,3*%
%TO.N,+8V*%
X123952000Y-66040000D03*
%TD*%
D13*
%TO.P,FAN4,4*%
%TO.N,N/C*%
X153416000Y-85852000D03*
%TO.P,FAN4,3*%
X155956000Y-85852000D03*
%TO.P,FAN4,2*%
%TO.N,+8V*%
X158496000Y-85852000D03*
D14*
%TO.P,FAN4,1*%
%TO.N,GND*%
X161036000Y-85852000D03*
%TD*%
D13*
%TO.P,FAN3,4*%
%TO.N,N/C*%
X153416000Y-76962000D03*
%TO.P,FAN3,3*%
X155956000Y-76962000D03*
%TO.P,FAN3,2*%
%TO.N,+8V*%
X158496000Y-76962000D03*
D14*
%TO.P,FAN3,1*%
%TO.N,GND*%
X161036000Y-76962000D03*
%TD*%
D13*
%TO.P,FAN2,4*%
%TO.N,N/C*%
X153416000Y-68072000D03*
%TO.P,FAN2,3*%
X155956000Y-68072000D03*
%TO.P,FAN2,2*%
%TO.N,+8V*%
X158496000Y-68072000D03*
D14*
%TO.P,FAN2,1*%
%TO.N,GND*%
X161036000Y-68072000D03*
%TD*%
D13*
%TO.P,FAN1,4*%
%TO.N,N/C*%
X140716000Y-85852000D03*
%TO.P,FAN1,3*%
X143256000Y-85852000D03*
%TO.P,FAN1,2*%
%TO.N,+8V*%
X145796000Y-85852000D03*
D14*
%TO.P,FAN1,1*%
%TO.N,GND*%
X148336000Y-85852000D03*
%TD*%
D13*
%TO.P,5V_FAN4,4*%
%TO.N,N/C*%
X140716000Y-76962000D03*
%TO.P,5V_FAN4,3*%
X143256000Y-76962000D03*
%TO.P,5V_FAN4,2*%
%TO.N,+5V*%
X145796000Y-76962000D03*
D14*
%TO.P,5V_FAN4,1*%
%TO.N,GND*%
X148336000Y-76962000D03*
%TD*%
D13*
%TO.P,5V_FAN3,4*%
%TO.N,N/C*%
X140716000Y-68072000D03*
%TO.P,5V_FAN3,3*%
X143256000Y-68072000D03*
%TO.P,5V_FAN3,2*%
%TO.N,+5V*%
X145796000Y-68072000D03*
D14*
%TO.P,5V_FAN3,1*%
%TO.N,GND*%
X148336000Y-68072000D03*
%TD*%
D15*
%TO.P,5V_FAN2,4*%
%TO.N,N/C*%
X132080000Y-85090000D03*
%TO.P,5V_FAN2,3*%
X132080000Y-82550000D03*
%TO.P,5V_FAN2,2*%
%TO.N,+5V*%
X132080000Y-80010000D03*
D16*
%TO.P,5V_FAN2,1*%
%TO.N,GND*%
X132080000Y-77470000D03*
%TD*%
D15*
%TO.P,5V_FAN1,4*%
%TO.N,N/C*%
X132080000Y-73660000D03*
%TO.P,5V_FAN1,3*%
X132080000Y-71120000D03*
%TO.P,5V_FAN1,2*%
%TO.N,+5V*%
X132080000Y-68580000D03*
D16*
%TO.P,5V_FAN1,1*%
%TO.N,GND*%
X132080000Y-66040000D03*
%TD*%
D13*
%TO.P,12V_FAN4,4*%
%TO.N,N/C*%
X109220000Y-90170000D03*
%TO.P,12V_FAN4,3*%
X111760000Y-90170000D03*
%TO.P,12V_FAN4,2*%
%TO.N,+12V*%
X114300000Y-90170000D03*
D14*
%TO.P,12V_FAN4,1*%
%TO.N,GND*%
X116840000Y-90170000D03*
%TD*%
D13*
%TO.P,12V_FAN3,4*%
%TO.N,N/C*%
X121920000Y-90170000D03*
%TO.P,12V_FAN3,3*%
X124460000Y-90170000D03*
%TO.P,12V_FAN3,2*%
%TO.N,+12V*%
X127000000Y-90170000D03*
D14*
%TO.P,12V_FAN3,1*%
%TO.N,GND*%
X129540000Y-90170000D03*
%TD*%
D13*
%TO.P,12V_FAN2,4*%
%TO.N,N/C*%
X83820000Y-90170000D03*
%TO.P,12V_FAN2,3*%
X86360000Y-90170000D03*
%TO.P,12V_FAN2,2*%
%TO.N,+12V*%
X88900000Y-90170000D03*
D14*
%TO.P,12V_FAN2,1*%
%TO.N,GND*%
X91440000Y-90170000D03*
%TD*%
D13*
%TO.P,12V_FAN1,4*%
%TO.N,N/C*%
X96520000Y-90170000D03*
%TO.P,12V_FAN1,3*%
X99060000Y-90170000D03*
%TO.P,12V_FAN1,2*%
%TO.N,+12V*%
X101600000Y-90170000D03*
D14*
%TO.P,12V_FAN1,1*%
%TO.N,GND*%
X104140000Y-90170000D03*
%TD*%
D17*
%TO.N,*%
X164846000Y-66040000D03*
X164846000Y-91440000D03*
X73660000Y-91440000D03*
X73660000Y-66040000D03*
X110490000Y-76200000D03*
D18*
%TO.N,GND*%
X138176000Y-71628000D03*
%TO.N,+5V*%
X85090000Y-80010000D03*
X91440000Y-80010000D03*
%TO.N,+8V*%
X121920000Y-77470000D03*
X139446000Y-92964000D03*
%TD*%
D19*
%TO.N,+12V*%
X88900000Y-82492000D02*
X88900000Y-90170000D01*
X101600000Y-87376000D02*
X101600000Y-90170000D01*
X96716000Y-82492000D02*
X101600000Y-87376000D01*
X114300000Y-87122000D02*
X114300000Y-90170000D01*
X109670000Y-82492000D02*
X114300000Y-87122000D01*
X112718000Y-82492000D02*
X117602000Y-87376000D01*
X117602000Y-87376000D02*
X125730000Y-87376000D01*
X127000000Y-88646000D02*
X127000000Y-90170000D01*
X125730000Y-87376000D02*
X127000000Y-88646000D01*
D20*
X88900000Y-82492000D02*
X112718000Y-82492000D01*
X81492399Y-68367601D02*
X83820000Y-66040000D01*
X83820000Y-75184000D02*
X88900000Y-80264000D01*
X83820000Y-66040000D02*
X83820000Y-75184000D01*
X88900000Y-80264000D02*
X88900000Y-82492000D01*
X88900000Y-79756000D02*
X88900000Y-80264000D01*
D21*
X127000000Y-90170000D02*
X127000000Y-88138000D01*
X127000000Y-88138000D02*
X127762000Y-87376000D01*
X127762000Y-87376000D02*
X131318000Y-87376000D01*
X132183500Y-88241500D02*
X132183500Y-89662000D01*
X131318000Y-87376000D02*
X132183500Y-88241500D01*
D20*
X81492399Y-68367601D02*
X77682399Y-68367601D01*
X77682399Y-68367601D02*
X76200000Y-69850000D01*
X75940000Y-69590000D02*
X73660000Y-69590000D01*
X76200000Y-69850000D02*
X75940000Y-69590000D01*
D21*
%TO.N,GND*%
X137843500Y-89662000D02*
X148082000Y-89662000D01*
X148336000Y-89408000D02*
X148336000Y-85852000D01*
X148082000Y-89662000D02*
X148336000Y-89408000D01*
D20*
X137081500Y-70533500D02*
X138176000Y-71628000D01*
X136652000Y-70533500D02*
X137081500Y-70533500D01*
D21*
X152575500Y-91694000D02*
X152575500Y-90345500D01*
X151892000Y-89662000D02*
X148082000Y-89662000D01*
X152575500Y-90345500D02*
X151892000Y-89662000D01*
D20*
%TO.N,+5V*%
X85032000Y-79952000D02*
X85090000Y-80010000D01*
X92185001Y-80755001D02*
X122444999Y-80755001D01*
X91440000Y-80010000D02*
X92185001Y-80755001D01*
X122444999Y-80755001D02*
X123190000Y-80010000D01*
X124460000Y-77470000D02*
X128270000Y-73660000D01*
X123190000Y-80010000D02*
X124460000Y-80010000D01*
X124460000Y-80010000D02*
X124460000Y-77470000D01*
X124460000Y-80010000D02*
X132080000Y-80010000D01*
X128270000Y-73660000D02*
X128270000Y-68580000D01*
X128270000Y-68580000D02*
X132080000Y-68580000D01*
X145796000Y-71882000D02*
X145796000Y-76962000D01*
X145796000Y-71882000D02*
X145796000Y-68072000D01*
X80772000Y-80010000D02*
X85090000Y-80010000D01*
X80772000Y-91630602D02*
X80772000Y-80010000D01*
X79625601Y-92777001D02*
X80772000Y-91630602D01*
X77854399Y-92777001D02*
X79625601Y-92777001D01*
X76894999Y-91817601D02*
X77854399Y-92777001D01*
X76894999Y-87096001D02*
X76894999Y-91817601D01*
X73660000Y-83861002D02*
X76894999Y-87096001D01*
X73660000Y-77854000D02*
X73660000Y-83861002D01*
X132080000Y-68580000D02*
X134366000Y-68580000D01*
X134366000Y-68580000D02*
X134366000Y-66040000D01*
X135278500Y-65127500D02*
X136652000Y-65127500D01*
X134366000Y-66040000D02*
X135278500Y-65127500D01*
X136652000Y-65127500D02*
X145899500Y-65127500D01*
X145796000Y-65231000D02*
X145796000Y-68072000D01*
X145899500Y-65127500D02*
X145796000Y-65231000D01*
%TO.N,+8V*%
X121920000Y-71120000D02*
X121920000Y-77470000D01*
X158496000Y-76962000D02*
X158496000Y-68072000D01*
X145796000Y-85852000D02*
X145796000Y-82804000D01*
X146050000Y-82550000D02*
X158496000Y-82550000D01*
X145796000Y-82804000D02*
X146050000Y-82550000D01*
X158496000Y-82550000D02*
X158496000Y-76962000D01*
X158496000Y-85852000D02*
X158496000Y-82550000D01*
D21*
X139446000Y-92305500D02*
X140057500Y-91694000D01*
X139446000Y-92964000D02*
X139446000Y-92305500D01*
D20*
X123952000Y-69088000D02*
X123952000Y-66040000D01*
X121920000Y-71120000D02*
X123952000Y-69088000D01*
%TO.N,Net-(F1-Pad1)*%
X78740000Y-77412000D02*
X78740000Y-78682000D01*
X78740000Y-78682000D02*
X78740000Y-79952000D01*
X78740000Y-77412000D02*
X77412000Y-77412000D01*
X77412000Y-77412000D02*
X75946000Y-75946000D01*
X75946000Y-75946000D02*
X75946000Y-74676000D01*
X74038000Y-74676000D02*
X73660000Y-75054000D01*
X75946000Y-74676000D02*
X74038000Y-74676000D01*
%TO.N,Net-(F2-Pad1)*%
X78740000Y-69792000D02*
X78740000Y-71062000D01*
X78740000Y-71062000D02*
X78740000Y-72332000D01*
X73718000Y-72332000D02*
X73660000Y-72390000D01*
X78740000Y-72332000D02*
X73718000Y-72332000D01*
D21*
%TO.N,Net-(R1-Pad1)*%
X134008500Y-89662000D02*
X134008500Y-91694000D01*
%TO.N,Net-(R2-Pad1)*%
X132183500Y-91694000D02*
X132183500Y-92813500D01*
X132183500Y-92813500D02*
X132588000Y-93218000D01*
X132588000Y-93218000D02*
X135890000Y-93218000D01*
X135993500Y-93114500D02*
X135993500Y-91694000D01*
X135890000Y-93218000D02*
X135993500Y-93114500D01*
%TO.N,Net-(R5-Pad2)*%
X141882500Y-91694000D02*
X143613500Y-91694000D01*
%TO.N,Net-(R6-Pad2)*%
X145438500Y-91694000D02*
X147169500Y-91694000D01*
%TO.N,Net-(12V_LED1-Pad2)*%
X137818500Y-91512000D02*
X135968500Y-89662000D01*
X137818500Y-91694000D02*
X137818500Y-91512000D01*
%TO.N,Net-(5V_LED1-Pad2)*%
X136652000Y-66952500D02*
X136652000Y-68658500D01*
%TO.N,Net-(LM2596S_LED1-Pad2)*%
X148994500Y-91694000D02*
X150700500Y-91694000D01*
%TD*%
M02*
