%TF.GenerationSoftware,KiCad,Pcbnew,(5.1.10)-1*%
%TF.CreationDate,2021-07-19T20:33:02+08:00*%
%TF.ProjectId,FanDCControl,46616e44-4343-46f6-9e74-726f6c2e6b69,rev?*%
%TF.SameCoordinates,Original*%
%TF.FileFunction,Soldermask,Top*%
%TF.FilePolarity,Negative*%
%FSLAX46Y46*%
G04 Gerber Fmt 4.6, Leading zero omitted, Abs format (unit mm)*
G04 Created by KiCad (PCBNEW (5.1.10)-1) date 2021-07-19 20:33:02*
%MOMM*%
%LPD*%
G01*
G04 APERTURE LIST*
%ADD10C,0.840000*%
%ADD11C,2.540000*%
%ADD12C,3.200000*%
%ADD13R,3.000000X3.000000*%
%ADD14C,1.100000*%
%ADD15O,1.730000X2.030000*%
%ADD16R,1.730000X2.030000*%
%ADD17O,2.030000X1.730000*%
%ADD18R,2.030000X1.730000*%
G04 APERTURE END LIST*
%TO.C,R7*%
G36*
G01*
X148482000Y-92144001D02*
X148482000Y-91243999D01*
G75*
G02*
X148731999Y-90994000I249999J0D01*
G01*
X149257001Y-90994000D01*
G75*
G02*
X149507000Y-91243999I0J-249999D01*
G01*
X149507000Y-92144001D01*
G75*
G02*
X149257001Y-92394000I-249999J0D01*
G01*
X148731999Y-92394000D01*
G75*
G02*
X148482000Y-92144001I0J249999D01*
G01*
G37*
G36*
G01*
X146657000Y-92144001D02*
X146657000Y-91243999D01*
G75*
G02*
X146906999Y-90994000I249999J0D01*
G01*
X147432001Y-90994000D01*
G75*
G02*
X147682000Y-91243999I0J-249999D01*
G01*
X147682000Y-92144001D01*
G75*
G02*
X147432001Y-92394000I-249999J0D01*
G01*
X146906999Y-92394000D01*
G75*
G02*
X146657000Y-92144001I0J249999D01*
G01*
G37*
%TD*%
%TO.C,R6*%
G36*
G01*
X144926000Y-92144001D02*
X144926000Y-91243999D01*
G75*
G02*
X145175999Y-90994000I249999J0D01*
G01*
X145701001Y-90994000D01*
G75*
G02*
X145951000Y-91243999I0J-249999D01*
G01*
X145951000Y-92144001D01*
G75*
G02*
X145701001Y-92394000I-249999J0D01*
G01*
X145175999Y-92394000D01*
G75*
G02*
X144926000Y-92144001I0J249999D01*
G01*
G37*
G36*
G01*
X143101000Y-92144001D02*
X143101000Y-91243999D01*
G75*
G02*
X143350999Y-90994000I249999J0D01*
G01*
X143876001Y-90994000D01*
G75*
G02*
X144126000Y-91243999I0J-249999D01*
G01*
X144126000Y-92144001D01*
G75*
G02*
X143876001Y-92394000I-249999J0D01*
G01*
X143350999Y-92394000D01*
G75*
G02*
X143101000Y-92144001I0J249999D01*
G01*
G37*
%TD*%
%TO.C,R5*%
G36*
G01*
X141370000Y-92144001D02*
X141370000Y-91243999D01*
G75*
G02*
X141619999Y-90994000I249999J0D01*
G01*
X142145001Y-90994000D01*
G75*
G02*
X142395000Y-91243999I0J-249999D01*
G01*
X142395000Y-92144001D01*
G75*
G02*
X142145001Y-92394000I-249999J0D01*
G01*
X141619999Y-92394000D01*
G75*
G02*
X141370000Y-92144001I0J249999D01*
G01*
G37*
G36*
G01*
X139545000Y-92144001D02*
X139545000Y-91243999D01*
G75*
G02*
X139794999Y-90994000I249999J0D01*
G01*
X140320001Y-90994000D01*
G75*
G02*
X140570000Y-91243999I0J-249999D01*
G01*
X140570000Y-92144001D01*
G75*
G02*
X140320001Y-92394000I-249999J0D01*
G01*
X139794999Y-92394000D01*
G75*
G02*
X139545000Y-92144001I0J249999D01*
G01*
G37*
%TD*%
%TO.C,LM2596S_LED1*%
G36*
G01*
X151188000Y-91237750D02*
X151188000Y-92150250D01*
G75*
G02*
X150944250Y-92394000I-243750J0D01*
G01*
X150456750Y-92394000D01*
G75*
G02*
X150213000Y-92150250I0J243750D01*
G01*
X150213000Y-91237750D01*
G75*
G02*
X150456750Y-90994000I243750J0D01*
G01*
X150944250Y-90994000D01*
G75*
G02*
X151188000Y-91237750I0J-243750D01*
G01*
G37*
G36*
G01*
X153063000Y-91237750D02*
X153063000Y-92150250D01*
G75*
G02*
X152819250Y-92394000I-243750J0D01*
G01*
X152331750Y-92394000D01*
G75*
G02*
X152088000Y-92150250I0J243750D01*
G01*
X152088000Y-91237750D01*
G75*
G02*
X152331750Y-90994000I243750J0D01*
G01*
X152819250Y-90994000D01*
G75*
G02*
X153063000Y-91237750I0J-243750D01*
G01*
G37*
%TD*%
%TO.C,R4*%
G36*
G01*
X137102001Y-65640000D02*
X136201999Y-65640000D01*
G75*
G02*
X135952000Y-65390001I0J249999D01*
G01*
X135952000Y-64864999D01*
G75*
G02*
X136201999Y-64615000I249999J0D01*
G01*
X137102001Y-64615000D01*
G75*
G02*
X137352000Y-64864999I0J-249999D01*
G01*
X137352000Y-65390001D01*
G75*
G02*
X137102001Y-65640000I-249999J0D01*
G01*
G37*
G36*
G01*
X137102001Y-67465000D02*
X136201999Y-67465000D01*
G75*
G02*
X135952000Y-67215001I0J249999D01*
G01*
X135952000Y-66689999D01*
G75*
G02*
X136201999Y-66440000I249999J0D01*
G01*
X137102001Y-66440000D01*
G75*
G02*
X137352000Y-66689999I0J-249999D01*
G01*
X137352000Y-67215001D01*
G75*
G02*
X137102001Y-67465000I-249999J0D01*
G01*
G37*
%TD*%
%TO.C,R3*%
G36*
G01*
X136506000Y-91243999D02*
X136506000Y-92144001D01*
G75*
G02*
X136256001Y-92394000I-249999J0D01*
G01*
X135730999Y-92394000D01*
G75*
G02*
X135481000Y-92144001I0J249999D01*
G01*
X135481000Y-91243999D01*
G75*
G02*
X135730999Y-90994000I249999J0D01*
G01*
X136256001Y-90994000D01*
G75*
G02*
X136506000Y-91243999I0J-249999D01*
G01*
G37*
G36*
G01*
X138331000Y-91243999D02*
X138331000Y-92144001D01*
G75*
G02*
X138081001Y-92394000I-249999J0D01*
G01*
X137555999Y-92394000D01*
G75*
G02*
X137306000Y-92144001I0J249999D01*
G01*
X137306000Y-91243999D01*
G75*
G02*
X137555999Y-90994000I249999J0D01*
G01*
X138081001Y-90994000D01*
G75*
G02*
X138331000Y-91243999I0J-249999D01*
G01*
G37*
%TD*%
%TO.C,R2*%
G36*
G01*
X133496000Y-92144001D02*
X133496000Y-91243999D01*
G75*
G02*
X133745999Y-90994000I249999J0D01*
G01*
X134271001Y-90994000D01*
G75*
G02*
X134521000Y-91243999I0J-249999D01*
G01*
X134521000Y-92144001D01*
G75*
G02*
X134271001Y-92394000I-249999J0D01*
G01*
X133745999Y-92394000D01*
G75*
G02*
X133496000Y-92144001I0J249999D01*
G01*
G37*
G36*
G01*
X131671000Y-92144001D02*
X131671000Y-91243999D01*
G75*
G02*
X131920999Y-90994000I249999J0D01*
G01*
X132446001Y-90994000D01*
G75*
G02*
X132696000Y-91243999I0J-249999D01*
G01*
X132696000Y-92144001D01*
G75*
G02*
X132446001Y-92394000I-249999J0D01*
G01*
X131920999Y-92394000D01*
G75*
G02*
X131671000Y-92144001I0J249999D01*
G01*
G37*
%TD*%
%TO.C,R1*%
G36*
G01*
X132696000Y-89211999D02*
X132696000Y-90112001D01*
G75*
G02*
X132446001Y-90362000I-249999J0D01*
G01*
X131920999Y-90362000D01*
G75*
G02*
X131671000Y-90112001I0J249999D01*
G01*
X131671000Y-89211999D01*
G75*
G02*
X131920999Y-88962000I249999J0D01*
G01*
X132446001Y-88962000D01*
G75*
G02*
X132696000Y-89211999I0J-249999D01*
G01*
G37*
G36*
G01*
X134521000Y-89211999D02*
X134521000Y-90112001D01*
G75*
G02*
X134271001Y-90362000I-249999J0D01*
G01*
X133745999Y-90362000D01*
G75*
G02*
X133496000Y-90112001I0J249999D01*
G01*
X133496000Y-89211999D01*
G75*
G02*
X133745999Y-88962000I249999J0D01*
G01*
X134271001Y-88962000D01*
G75*
G02*
X134521000Y-89211999I0J-249999D01*
G01*
G37*
%TD*%
%TO.C,F2*%
G36*
G01*
X74285000Y-70215000D02*
X73035000Y-70215000D01*
G75*
G02*
X72785000Y-69965000I0J250000D01*
G01*
X72785000Y-69215000D01*
G75*
G02*
X73035000Y-68965000I250000J0D01*
G01*
X74285000Y-68965000D01*
G75*
G02*
X74535000Y-69215000I0J-250000D01*
G01*
X74535000Y-69965000D01*
G75*
G02*
X74285000Y-70215000I-250000J0D01*
G01*
G37*
G36*
G01*
X74285000Y-73015000D02*
X73035000Y-73015000D01*
G75*
G02*
X72785000Y-72765000I0J250000D01*
G01*
X72785000Y-72015000D01*
G75*
G02*
X73035000Y-71765000I250000J0D01*
G01*
X74285000Y-71765000D01*
G75*
G02*
X74535000Y-72015000I0J-250000D01*
G01*
X74535000Y-72765000D01*
G75*
G02*
X74285000Y-73015000I-250000J0D01*
G01*
G37*
%TD*%
%TO.C,F1*%
G36*
G01*
X73035000Y-77229000D02*
X74285000Y-77229000D01*
G75*
G02*
X74535000Y-77479000I0J-250000D01*
G01*
X74535000Y-78229000D01*
G75*
G02*
X74285000Y-78479000I-250000J0D01*
G01*
X73035000Y-78479000D01*
G75*
G02*
X72785000Y-78229000I0J250000D01*
G01*
X72785000Y-77479000D01*
G75*
G02*
X73035000Y-77229000I250000J0D01*
G01*
G37*
G36*
G01*
X73035000Y-74429000D02*
X74285000Y-74429000D01*
G75*
G02*
X74535000Y-74679000I0J-250000D01*
G01*
X74535000Y-75429000D01*
G75*
G02*
X74285000Y-75679000I-250000J0D01*
G01*
X73035000Y-75679000D01*
G75*
G02*
X72785000Y-75429000I0J250000D01*
G01*
X72785000Y-74679000D01*
G75*
G02*
X73035000Y-74429000I250000J0D01*
G01*
G37*
%TD*%
%TO.C,5V_LED1*%
G36*
G01*
X137108250Y-69146000D02*
X136195750Y-69146000D01*
G75*
G02*
X135952000Y-68902250I0J243750D01*
G01*
X135952000Y-68414750D01*
G75*
G02*
X136195750Y-68171000I243750J0D01*
G01*
X137108250Y-68171000D01*
G75*
G02*
X137352000Y-68414750I0J-243750D01*
G01*
X137352000Y-68902250D01*
G75*
G02*
X137108250Y-69146000I-243750J0D01*
G01*
G37*
G36*
G01*
X137108250Y-71021000D02*
X136195750Y-71021000D01*
G75*
G02*
X135952000Y-70777250I0J243750D01*
G01*
X135952000Y-70289750D01*
G75*
G02*
X136195750Y-70046000I243750J0D01*
G01*
X137108250Y-70046000D01*
G75*
G02*
X137352000Y-70289750I0J-243750D01*
G01*
X137352000Y-70777250D01*
G75*
G02*
X137108250Y-71021000I-243750J0D01*
G01*
G37*
%TD*%
%TO.C,12V_LED1*%
G36*
G01*
X136456000Y-89205750D02*
X136456000Y-90118250D01*
G75*
G02*
X136212250Y-90362000I-243750J0D01*
G01*
X135724750Y-90362000D01*
G75*
G02*
X135481000Y-90118250I0J243750D01*
G01*
X135481000Y-89205750D01*
G75*
G02*
X135724750Y-88962000I243750J0D01*
G01*
X136212250Y-88962000D01*
G75*
G02*
X136456000Y-89205750I0J-243750D01*
G01*
G37*
G36*
G01*
X138331000Y-89205750D02*
X138331000Y-90118250D01*
G75*
G02*
X138087250Y-90362000I-243750J0D01*
G01*
X137599750Y-90362000D01*
G75*
G02*
X137356000Y-90118250I0J243750D01*
G01*
X137356000Y-89205750D01*
G75*
G02*
X137599750Y-88962000I243750J0D01*
G01*
X138087250Y-88962000D01*
G75*
G02*
X138331000Y-89205750I0J-243750D01*
G01*
G37*
%TD*%
D10*
%TO.C,U2*%
X78740000Y-71062000D03*
X78740000Y-72332000D03*
X78740000Y-69792000D03*
X78740000Y-76142000D03*
X78740000Y-73602000D03*
X78740000Y-74872000D03*
X78740000Y-77412000D03*
X78740000Y-78682000D03*
X78740000Y-79952000D03*
X78740000Y-81222000D03*
X78740000Y-82492000D03*
X78740000Y-83762000D03*
X78740000Y-85032000D03*
X78740000Y-86302000D03*
X78740000Y-87572000D03*
D11*
X78740000Y-66522600D03*
X78740000Y-90932000D03*
%TD*%
D12*
%TO.C,U1*%
X118872000Y-84328000D03*
X88900000Y-66040000D03*
D13*
X123952000Y-84328000D03*
X83820000Y-66040000D03*
X83820000Y-84328000D03*
X123952000Y-66040000D03*
%TD*%
D14*
%TO.C,FAN4*%
X155956000Y-88012000D03*
D15*
X153416000Y-85852000D03*
X155956000Y-85852000D03*
X158496000Y-85852000D03*
D16*
X161036000Y-85852000D03*
%TD*%
D14*
%TO.C,FAN3*%
X155956000Y-79122000D03*
D15*
X153416000Y-76962000D03*
X155956000Y-76962000D03*
X158496000Y-76962000D03*
D16*
X161036000Y-76962000D03*
%TD*%
D14*
%TO.C,FAN2*%
X155956000Y-70232000D03*
D15*
X153416000Y-68072000D03*
X155956000Y-68072000D03*
X158496000Y-68072000D03*
D16*
X161036000Y-68072000D03*
%TD*%
D14*
%TO.C,FAN1*%
X143256000Y-88012000D03*
D15*
X140716000Y-85852000D03*
X143256000Y-85852000D03*
X145796000Y-85852000D03*
D16*
X148336000Y-85852000D03*
%TD*%
D14*
%TO.C,5V_FAN4*%
X143256000Y-79122000D03*
D15*
X140716000Y-76962000D03*
X143256000Y-76962000D03*
X145796000Y-76962000D03*
D16*
X148336000Y-76962000D03*
%TD*%
D14*
%TO.C,5V_FAN3*%
X143256000Y-70232000D03*
D15*
X140716000Y-68072000D03*
X143256000Y-68072000D03*
X145796000Y-68072000D03*
D16*
X148336000Y-68072000D03*
%TD*%
D14*
%TO.C,5V_FAN2*%
X134240000Y-82550000D03*
D17*
X132080000Y-85090000D03*
X132080000Y-82550000D03*
X132080000Y-80010000D03*
D18*
X132080000Y-77470000D03*
%TD*%
D14*
%TO.C,5V_FAN1*%
X134240000Y-71120000D03*
D17*
X132080000Y-73660000D03*
X132080000Y-71120000D03*
X132080000Y-68580000D03*
D18*
X132080000Y-66040000D03*
%TD*%
D14*
%TO.C,12V_FAN4*%
X111760000Y-92330000D03*
D15*
X109220000Y-90170000D03*
X111760000Y-90170000D03*
X114300000Y-90170000D03*
D16*
X116840000Y-90170000D03*
%TD*%
D14*
%TO.C,12V_FAN3*%
X124460000Y-92330000D03*
D15*
X121920000Y-90170000D03*
X124460000Y-90170000D03*
X127000000Y-90170000D03*
D16*
X129540000Y-90170000D03*
%TD*%
D14*
%TO.C,12V_FAN2*%
X86360000Y-92330000D03*
D15*
X83820000Y-90170000D03*
X86360000Y-90170000D03*
X88900000Y-90170000D03*
D16*
X91440000Y-90170000D03*
%TD*%
D14*
%TO.C,12V_FAN1*%
X99060000Y-92330000D03*
D15*
X96520000Y-90170000D03*
X99060000Y-90170000D03*
X101600000Y-90170000D03*
D16*
X104140000Y-90170000D03*
%TD*%
M02*
