%TF.GenerationSoftware,KiCad,Pcbnew,(5.1.10)-1*%
%TF.CreationDate,2021-07-17T09:46:38+08:00*%
%TF.ProjectId,FanDCControl,46616e44-4343-46f6-9e74-726f6c2e6b69,rev?*%
%TF.SameCoordinates,Original*%
%TF.FileFunction,Copper,L2,Bot*%
%TF.FilePolarity,Positive*%
%FSLAX46Y46*%
G04 Gerber Fmt 4.6, Leading zero omitted, Abs format (unit mm)*
G04 Created by KiCad (PCBNEW (5.1.10)-1) date 2021-07-17 09:46:38*
%MOMM*%
%LPD*%
G01*
G04 APERTURE LIST*
%TA.AperFunction,NonConductor*%
%ADD10C,0.300000*%
%TD*%
%TA.AperFunction,ComponentPad*%
%ADD11C,0.700000*%
%TD*%
%TA.AperFunction,WasherPad*%
%ADD12C,2.540000*%
%TD*%
%TA.AperFunction,ComponentPad*%
%ADD13R,3.000000X3.000000*%
%TD*%
%TA.AperFunction,ComponentPad*%
%ADD14O,1.730000X2.030000*%
%TD*%
%TA.AperFunction,ComponentPad*%
%ADD15R,1.730000X2.030000*%
%TD*%
%TA.AperFunction,ComponentPad*%
%ADD16O,2.030000X1.730000*%
%TD*%
%TA.AperFunction,ComponentPad*%
%ADD17R,2.030000X1.730000*%
%TD*%
%TA.AperFunction,ViaPad*%
%ADD18C,3.600000*%
%TD*%
%TA.AperFunction,ViaPad*%
%ADD19C,0.800000*%
%TD*%
%TA.AperFunction,Conductor*%
%ADD20C,0.750000*%
%TD*%
G04 APERTURE END LIST*
D10*
X120584285Y-70441428D02*
X120512857Y-70370000D01*
X120370000Y-70298571D01*
X120012857Y-70298571D01*
X119870000Y-70370000D01*
X119798571Y-70441428D01*
X119727142Y-70584285D01*
X119727142Y-70727142D01*
X119798571Y-70941428D01*
X120655714Y-71798571D01*
X119727142Y-71798571D01*
X118798571Y-70298571D02*
X118655714Y-70298571D01*
X118512857Y-70370000D01*
X118441428Y-70441428D01*
X118370000Y-70584285D01*
X118298571Y-70870000D01*
X118298571Y-71227142D01*
X118370000Y-71512857D01*
X118441428Y-71655714D01*
X118512857Y-71727142D01*
X118655714Y-71798571D01*
X118798571Y-71798571D01*
X118941428Y-71727142D01*
X119012857Y-71655714D01*
X119084285Y-71512857D01*
X119155714Y-71227142D01*
X119155714Y-70870000D01*
X119084285Y-70584285D01*
X119012857Y-70441428D01*
X118941428Y-70370000D01*
X118798571Y-70298571D01*
X117727142Y-70441428D02*
X117655714Y-70370000D01*
X117512857Y-70298571D01*
X117155714Y-70298571D01*
X117012857Y-70370000D01*
X116941428Y-70441428D01*
X116870000Y-70584285D01*
X116870000Y-70727142D01*
X116941428Y-70941428D01*
X117798571Y-71798571D01*
X116870000Y-71798571D01*
X115441428Y-71798571D02*
X116298571Y-71798571D01*
X115870000Y-71798571D02*
X115870000Y-70298571D01*
X116012857Y-70512857D01*
X116155714Y-70655714D01*
X116298571Y-70727142D01*
X114798571Y-71227142D02*
X113655714Y-71227142D01*
X112655714Y-70298571D02*
X112512857Y-70298571D01*
X112370000Y-70370000D01*
X112298571Y-70441428D01*
X112227142Y-70584285D01*
X112155714Y-70870000D01*
X112155714Y-71227142D01*
X112227142Y-71512857D01*
X112298571Y-71655714D01*
X112370000Y-71727142D01*
X112512857Y-71798571D01*
X112655714Y-71798571D01*
X112798571Y-71727142D01*
X112870000Y-71655714D01*
X112941428Y-71512857D01*
X113012857Y-71227142D01*
X113012857Y-70870000D01*
X112941428Y-70584285D01*
X112870000Y-70441428D01*
X112798571Y-70370000D01*
X112655714Y-70298571D01*
X111655714Y-70298571D02*
X110655714Y-70298571D01*
X111298571Y-71798571D01*
X110084285Y-71227142D02*
X108941428Y-71227142D01*
X107441428Y-71798571D02*
X108298571Y-71798571D01*
X107870000Y-71798571D02*
X107870000Y-70298571D01*
X108012857Y-70512857D01*
X108155714Y-70655714D01*
X108298571Y-70727142D01*
X106155714Y-70298571D02*
X106441428Y-70298571D01*
X106584285Y-70370000D01*
X106655714Y-70441428D01*
X106798571Y-70655714D01*
X106870000Y-70941428D01*
X106870000Y-71512857D01*
X106798571Y-71655714D01*
X106727142Y-71727142D01*
X106584285Y-71798571D01*
X106298571Y-71798571D01*
X106155714Y-71727142D01*
X106084285Y-71655714D01*
X106012857Y-71512857D01*
X106012857Y-71155714D01*
X106084285Y-71012857D01*
X106155714Y-70941428D01*
X106298571Y-70870000D01*
X106584285Y-70870000D01*
X106727142Y-70941428D01*
X106798571Y-71012857D01*
X106870000Y-71155714D01*
X105370000Y-71227142D02*
X104227142Y-71227142D01*
X103012857Y-71012857D02*
X103512857Y-71012857D01*
X103512857Y-71798571D02*
X103512857Y-70298571D01*
X102798571Y-70298571D01*
X101584285Y-71798571D02*
X101584285Y-71012857D01*
X101655714Y-70870000D01*
X101798571Y-70798571D01*
X102084285Y-70798571D01*
X102227142Y-70870000D01*
X101584285Y-71727142D02*
X101727142Y-71798571D01*
X102084285Y-71798571D01*
X102227142Y-71727142D01*
X102298571Y-71584285D01*
X102298571Y-71441428D01*
X102227142Y-71298571D01*
X102084285Y-71227142D01*
X101727142Y-71227142D01*
X101584285Y-71155714D01*
X100870000Y-70798571D02*
X100870000Y-71798571D01*
X100870000Y-70941428D02*
X100798571Y-70870000D01*
X100655714Y-70798571D01*
X100441428Y-70798571D01*
X100298571Y-70870000D01*
X100227142Y-71012857D01*
X100227142Y-71798571D01*
X99512857Y-71798571D02*
X99512857Y-70298571D01*
X99155714Y-70298571D01*
X98941428Y-70370000D01*
X98798571Y-70512857D01*
X98727142Y-70655714D01*
X98655714Y-70941428D01*
X98655714Y-71155714D01*
X98727142Y-71441428D01*
X98798571Y-71584285D01*
X98941428Y-71727142D01*
X99155714Y-71798571D01*
X99512857Y-71798571D01*
X97155714Y-71655714D02*
X97227142Y-71727142D01*
X97441428Y-71798571D01*
X97584285Y-71798571D01*
X97798571Y-71727142D01*
X97941428Y-71584285D01*
X98012857Y-71441428D01*
X98084285Y-71155714D01*
X98084285Y-70941428D01*
X98012857Y-70655714D01*
X97941428Y-70512857D01*
X97798571Y-70370000D01*
X97584285Y-70298571D01*
X97441428Y-70298571D01*
X97227142Y-70370000D01*
X97155714Y-70441428D01*
X95655714Y-71655714D02*
X95727142Y-71727142D01*
X95941428Y-71798571D01*
X96084285Y-71798571D01*
X96298571Y-71727142D01*
X96441428Y-71584285D01*
X96512857Y-71441428D01*
X96584285Y-71155714D01*
X96584285Y-70941428D01*
X96512857Y-70655714D01*
X96441428Y-70512857D01*
X96298571Y-70370000D01*
X96084285Y-70298571D01*
X95941428Y-70298571D01*
X95727142Y-70370000D01*
X95655714Y-70441428D01*
X94798571Y-71798571D02*
X94941428Y-71727142D01*
X95012857Y-71655714D01*
X95084285Y-71512857D01*
X95084285Y-71084285D01*
X95012857Y-70941428D01*
X94941428Y-70870000D01*
X94798571Y-70798571D01*
X94584285Y-70798571D01*
X94441428Y-70870000D01*
X94370000Y-70941428D01*
X94298571Y-71084285D01*
X94298571Y-71512857D01*
X94370000Y-71655714D01*
X94441428Y-71727142D01*
X94584285Y-71798571D01*
X94798571Y-71798571D01*
X93655714Y-70798571D02*
X93655714Y-71798571D01*
X93655714Y-70941428D02*
X93584285Y-70870000D01*
X93441428Y-70798571D01*
X93227142Y-70798571D01*
X93084285Y-70870000D01*
X93012857Y-71012857D01*
X93012857Y-71798571D01*
X92512857Y-70798571D02*
X91941428Y-70798571D01*
X92298571Y-70298571D02*
X92298571Y-71584285D01*
X92227142Y-71727142D01*
X92084285Y-71798571D01*
X91941428Y-71798571D01*
X91441428Y-71798571D02*
X91441428Y-70798571D01*
X91441428Y-71084285D02*
X91370000Y-70941428D01*
X91298571Y-70870000D01*
X91155714Y-70798571D01*
X91012857Y-70798571D01*
X90298571Y-71798571D02*
X90441428Y-71727142D01*
X90512857Y-71655714D01*
X90584285Y-71512857D01*
X90584285Y-71084285D01*
X90512857Y-70941428D01*
X90441428Y-70870000D01*
X90298571Y-70798571D01*
X90084285Y-70798571D01*
X89941428Y-70870000D01*
X89870000Y-70941428D01*
X89798571Y-71084285D01*
X89798571Y-71512857D01*
X89870000Y-71655714D01*
X89941428Y-71727142D01*
X90084285Y-71798571D01*
X90298571Y-71798571D01*
X88941428Y-71798571D02*
X89084285Y-71727142D01*
X89155714Y-71584285D01*
X89155714Y-70298571D01*
X88727142Y-71941428D02*
X87584285Y-71941428D01*
X87441428Y-70298571D02*
X86941428Y-71798571D01*
X86441428Y-70298571D01*
X85155714Y-71798571D02*
X86012857Y-71798571D01*
X85584285Y-71798571D02*
X85584285Y-70298571D01*
X85727142Y-70512857D01*
X85870000Y-70655714D01*
X86012857Y-70727142D01*
D11*
%TO.P,U2,14*%
%TO.N,+12V*%
X78740000Y-71062000D03*
%TO.P,U2,13*%
X78740000Y-72332000D03*
%TO.P,U2,15*%
X78740000Y-69792000D03*
%TO.P,U2,10*%
%TO.N,GND*%
X78740000Y-76142000D03*
%TO.P,U2,12*%
X78740000Y-73602000D03*
%TO.P,U2,11*%
%TO.N,N/C*%
X78740000Y-74872000D03*
%TO.P,U2,9*%
%TO.N,+5V*%
X78740000Y-77412000D03*
%TO.P,U2,8*%
X78740000Y-78682000D03*
%TO.P,U2,7*%
X78740000Y-79952000D03*
%TO.P,U2,6*%
%TO.N,GND*%
X78740000Y-81222000D03*
%TO.P,U2,5*%
X78740000Y-82492000D03*
%TO.P,U2,4*%
X78740000Y-83762000D03*
%TO.P,U2,3*%
%TO.N,N/C*%
X78740000Y-85032000D03*
%TO.P,U2,2*%
X78740000Y-86302000D03*
%TO.P,U2,1*%
X78740000Y-87572000D03*
D12*
%TO.P,U2,*%
%TO.N,*%
X78740000Y-66522600D03*
X78740000Y-90932000D03*
%TD*%
D13*
%TO.P,U1,4*%
%TO.N,GND*%
X123952000Y-84328000D03*
%TO.P,U1,1*%
%TO.N,+12V*%
X83820000Y-66040000D03*
%TO.P,U1,2*%
%TO.N,GND*%
X83820000Y-84328000D03*
%TO.P,U1,3*%
%TO.N,+8V*%
X123952000Y-66040000D03*
%TD*%
D14*
%TO.P,FAN4,4*%
%TO.N,N/C*%
X151130000Y-86360000D03*
%TO.P,FAN4,3*%
X153670000Y-86360000D03*
%TO.P,FAN4,2*%
%TO.N,+8V*%
X156210000Y-86360000D03*
D15*
%TO.P,FAN4,1*%
%TO.N,GND*%
X158750000Y-86360000D03*
%TD*%
D14*
%TO.P,FAN3,4*%
%TO.N,N/C*%
X151130000Y-77470000D03*
%TO.P,FAN3,3*%
X153670000Y-77470000D03*
%TO.P,FAN3,2*%
%TO.N,+8V*%
X156210000Y-77470000D03*
D15*
%TO.P,FAN3,1*%
%TO.N,GND*%
X158750000Y-77470000D03*
%TD*%
D14*
%TO.P,FAN2,4*%
%TO.N,N/C*%
X151130000Y-68580000D03*
%TO.P,FAN2,3*%
X153670000Y-68580000D03*
%TO.P,FAN2,2*%
%TO.N,+8V*%
X156210000Y-68580000D03*
D15*
%TO.P,FAN2,1*%
%TO.N,GND*%
X158750000Y-68580000D03*
%TD*%
D14*
%TO.P,FAN1,4*%
%TO.N,N/C*%
X138430000Y-86360000D03*
%TO.P,FAN1,3*%
X140970000Y-86360000D03*
%TO.P,FAN1,2*%
%TO.N,+8V*%
X143510000Y-86360000D03*
D15*
%TO.P,FAN1,1*%
%TO.N,GND*%
X146050000Y-86360000D03*
%TD*%
D14*
%TO.P,5V_FAN4,4*%
%TO.N,N/C*%
X138430000Y-77470000D03*
%TO.P,5V_FAN4,3*%
X140970000Y-77470000D03*
%TO.P,5V_FAN4,2*%
%TO.N,+5V*%
X143510000Y-77470000D03*
D15*
%TO.P,5V_FAN4,1*%
%TO.N,GND*%
X146050000Y-77470000D03*
%TD*%
D14*
%TO.P,5V_FAN3,4*%
%TO.N,N/C*%
X138430000Y-68580000D03*
%TO.P,5V_FAN3,3*%
X140970000Y-68580000D03*
%TO.P,5V_FAN3,2*%
%TO.N,+5V*%
X143510000Y-68580000D03*
D15*
%TO.P,5V_FAN3,1*%
%TO.N,GND*%
X146050000Y-68580000D03*
%TD*%
D16*
%TO.P,5V_FAN2,4*%
%TO.N,N/C*%
X132080000Y-85090000D03*
%TO.P,5V_FAN2,3*%
X132080000Y-82550000D03*
%TO.P,5V_FAN2,2*%
%TO.N,+5V*%
X132080000Y-80010000D03*
D17*
%TO.P,5V_FAN2,1*%
%TO.N,GND*%
X132080000Y-77470000D03*
%TD*%
D16*
%TO.P,5V_FAN1,4*%
%TO.N,N/C*%
X132080000Y-73660000D03*
%TO.P,5V_FAN1,3*%
X132080000Y-71120000D03*
%TO.P,5V_FAN1,2*%
%TO.N,+5V*%
X132080000Y-68580000D03*
D17*
%TO.P,5V_FAN1,1*%
%TO.N,GND*%
X132080000Y-66040000D03*
%TD*%
D14*
%TO.P,12V_FAN4,4*%
%TO.N,N/C*%
X109220000Y-90170000D03*
%TO.P,12V_FAN4,3*%
X111760000Y-90170000D03*
%TO.P,12V_FAN4,2*%
%TO.N,+12V*%
X114300000Y-90170000D03*
D15*
%TO.P,12V_FAN4,1*%
%TO.N,GND*%
X116840000Y-90170000D03*
%TD*%
D14*
%TO.P,12V_FAN3,4*%
%TO.N,N/C*%
X121920000Y-90170000D03*
%TO.P,12V_FAN3,3*%
X124460000Y-90170000D03*
%TO.P,12V_FAN3,2*%
%TO.N,+12V*%
X127000000Y-90170000D03*
D15*
%TO.P,12V_FAN3,1*%
%TO.N,GND*%
X129540000Y-90170000D03*
%TD*%
D14*
%TO.P,12V_FAN2,4*%
%TO.N,N/C*%
X83820000Y-90170000D03*
%TO.P,12V_FAN2,3*%
X86360000Y-90170000D03*
%TO.P,12V_FAN2,2*%
%TO.N,+12V*%
X88900000Y-90170000D03*
D15*
%TO.P,12V_FAN2,1*%
%TO.N,GND*%
X91440000Y-90170000D03*
%TD*%
D14*
%TO.P,12V_FAN1,4*%
%TO.N,N/C*%
X96520000Y-90170000D03*
%TO.P,12V_FAN1,3*%
X99060000Y-90170000D03*
%TO.P,12V_FAN1,2*%
%TO.N,+12V*%
X101600000Y-90170000D03*
D15*
%TO.P,12V_FAN1,1*%
%TO.N,GND*%
X104140000Y-90170000D03*
%TD*%
D18*
%TO.N,*%
X73660000Y-78740000D03*
X162560000Y-78740000D03*
X162560000Y-66040000D03*
X162560000Y-91440000D03*
X73660000Y-91440000D03*
X73660000Y-66040000D03*
D19*
%TO.N,+5V*%
X85090000Y-80010000D03*
X91440000Y-80010000D03*
%TO.N,+8V*%
X121920000Y-77470000D03*
X134620000Y-91440000D03*
%TD*%
D20*
%TO.N,GND*%
X78682000Y-81222000D02*
X78740000Y-81222000D01*
X78740000Y-81222000D02*
X78740000Y-82550000D01*
X78740000Y-82550000D02*
X78740000Y-82492000D01*
X78740000Y-82492000D02*
X78740000Y-83762000D01*
X83254000Y-83762000D02*
X83820000Y-84328000D01*
X78740000Y-83762000D02*
X83254000Y-83762000D01*
X78740000Y-81222000D02*
X76258000Y-81222000D01*
X76258000Y-81222000D02*
X76200000Y-81164000D01*
X76200000Y-81164000D02*
X76200000Y-76200000D01*
X78740000Y-76200000D02*
X76200000Y-76200000D01*
X76200000Y-76200000D02*
X76200000Y-73660000D01*
X78682000Y-73660000D02*
X78740000Y-73602000D01*
X76200000Y-73660000D02*
X78682000Y-73660000D01*
X83820000Y-84328000D02*
X89408000Y-84328000D01*
X91440000Y-86360000D02*
X91440000Y-90170000D01*
X89408000Y-84328000D02*
X91440000Y-86360000D01*
X104140000Y-86360000D02*
X104140000Y-90170000D01*
X91440000Y-86360000D02*
X104140000Y-86360000D01*
X104140000Y-86360000D02*
X116840000Y-86360000D01*
X120650000Y-87630000D02*
X123952000Y-84328000D01*
X116840000Y-87630000D02*
X120650000Y-87630000D01*
X116840000Y-86360000D02*
X116840000Y-87630000D01*
X116840000Y-87630000D02*
X116840000Y-90170000D01*
X123952000Y-84328000D02*
X126238000Y-84328000D01*
X129540000Y-87630000D02*
X129540000Y-90170000D01*
X126238000Y-84328000D02*
X129540000Y-87630000D01*
X123952000Y-84328000D02*
X118110000Y-78486000D01*
X118110000Y-78486000D02*
X118110000Y-74930000D01*
X118110000Y-74930000D02*
X119380000Y-73660000D01*
X128270000Y-73660000D02*
X132080000Y-77470000D01*
X119380000Y-73660000D02*
X128270000Y-73660000D01*
X128270000Y-73660000D02*
X128270000Y-67310000D01*
X129540000Y-66040000D02*
X132080000Y-66040000D01*
X128270000Y-67310000D02*
X129540000Y-66040000D01*
X158750000Y-66040000D02*
X158750000Y-68580000D01*
X146050000Y-66040000D02*
X146050000Y-68580000D01*
X132080000Y-66040000D02*
X146050000Y-66040000D01*
X146050000Y-66040000D02*
X158750000Y-66040000D01*
X146050000Y-68580000D02*
X146050000Y-77470000D01*
X158750000Y-68580000D02*
X158750000Y-77470000D01*
X158750000Y-77470000D02*
X158750000Y-86360000D01*
X146050000Y-77470000D02*
X146050000Y-86360000D01*
%TO.N,+5V*%
X85090000Y-80010000D02*
X91440000Y-80010000D01*
%TO.N,+8V*%
X130980010Y-87800010D02*
X134620000Y-91440000D01*
X130980010Y-86530010D02*
X130980010Y-87800010D01*
X121920000Y-77470000D02*
X130980010Y-86530010D01*
%TD*%
M02*
