M48
; DRILL file {KiCad (5.1.10)-1} date 07/17/21 09:46:36
; FORMAT={-:-/ absolute / inch / decimal}
; #@! TF.CreationDate,2021-07-17T09:46:36+08:00
; #@! TF.GenerationSoftware,Kicad,Pcbnew,(5.1.10)-1
; #@! TF.FileFunction,Plated,1,2,PTH
FMAT,2
INCH
T1C0.0157
T2C0.0177
T3C0.0402
T4C0.0472
T5C0.1260
%
G90
G05
T1
X3.35Y-3.15
X3.6Y-3.15
X4.8Y-3.05
X5.3Y-3.6
T2
X3.1Y-2.7477
X3.1Y-2.7977
X3.1Y-2.8477
X3.1Y-2.8977
X3.1Y-2.9477
X3.1Y-2.9977
X3.1Y-3.0477
X3.1Y-3.0977
X3.1Y-3.1477
X3.1Y-3.1977
X3.1Y-3.2477
X3.1Y-3.2977
X3.1Y-3.3477
X3.1Y-3.3977
X3.1Y-3.4477
T3
X3.3Y-3.55
X3.4Y-3.55
X3.5Y-3.55
X3.6Y-3.55
X3.8Y-3.55
X3.9Y-3.55
X4.0Y-3.55
X4.1Y-3.55
X4.3Y-3.55
X4.4Y-3.55
X4.5Y-3.55
X4.6Y-3.55
X4.8Y-3.55
X4.9Y-3.55
X5.0Y-3.55
X5.1Y-3.55
X5.2Y-2.6
X5.2Y-2.7
X5.2Y-2.8
X5.2Y-2.9
X5.2Y-3.05
X5.2Y-3.15
X5.2Y-3.25
X5.2Y-3.35
X5.45Y-2.7
X5.45Y-3.05
X5.45Y-3.4
X5.55Y-2.7
X5.55Y-3.05
X5.55Y-3.4
X5.65Y-2.7
X5.65Y-3.05
X5.65Y-3.4
X5.75Y-2.7
X5.75Y-3.05
X5.75Y-3.4
X5.95Y-2.7
X5.95Y-3.05
X5.95Y-3.4
X6.05Y-2.7
X6.05Y-3.05
X6.05Y-3.4
X6.15Y-2.7
X6.15Y-3.05
X6.15Y-3.4
X6.25Y-2.7
X6.25Y-3.05
X6.25Y-3.4
T4
X3.3Y-2.6
X3.3Y-3.32
X4.88Y-2.6
X4.88Y-3.32
T5
X2.9Y-2.6
X2.9Y-3.1
X2.9Y-3.6
X6.4Y-2.6
X6.4Y-3.1
X6.4Y-3.6
T0
M30
