%TF.GenerationSoftware,KiCad,Pcbnew,(5.1.10)-1*%
%TF.CreationDate,2021-07-17T09:46:38+08:00*%
%TF.ProjectId,FanDCControl,46616e44-4343-46f6-9e74-726f6c2e6b69,rev?*%
%TF.SameCoordinates,Original*%
%TF.FileFunction,Copper,L1,Top*%
%TF.FilePolarity,Positive*%
%FSLAX46Y46*%
G04 Gerber Fmt 4.6, Leading zero omitted, Abs format (unit mm)*
G04 Created by KiCad (PCBNEW (5.1.10)-1) date 2021-07-17 09:46:38*
%MOMM*%
%LPD*%
G01*
G04 APERTURE LIST*
%TA.AperFunction,ComponentPad*%
%ADD10C,0.700000*%
%TD*%
%TA.AperFunction,WasherPad*%
%ADD11C,2.540000*%
%TD*%
%TA.AperFunction,ComponentPad*%
%ADD12R,3.000000X3.000000*%
%TD*%
%TA.AperFunction,ComponentPad*%
%ADD13O,1.730000X2.030000*%
%TD*%
%TA.AperFunction,ComponentPad*%
%ADD14R,1.730000X2.030000*%
%TD*%
%TA.AperFunction,ComponentPad*%
%ADD15O,2.030000X1.730000*%
%TD*%
%TA.AperFunction,ComponentPad*%
%ADD16R,2.030000X1.730000*%
%TD*%
%TA.AperFunction,ViaPad*%
%ADD17C,3.600000*%
%TD*%
%TA.AperFunction,ViaPad*%
%ADD18C,0.800000*%
%TD*%
%TA.AperFunction,Conductor*%
%ADD19C,0.500000*%
%TD*%
%TA.AperFunction,Conductor*%
%ADD20C,0.750000*%
%TD*%
G04 APERTURE END LIST*
D10*
%TO.P,U2,14*%
%TO.N,+12V*%
X78740000Y-71062000D03*
%TO.P,U2,13*%
X78740000Y-72332000D03*
%TO.P,U2,15*%
X78740000Y-69792000D03*
%TO.P,U2,10*%
%TO.N,GND*%
X78740000Y-76142000D03*
%TO.P,U2,12*%
X78740000Y-73602000D03*
%TO.P,U2,11*%
%TO.N,N/C*%
X78740000Y-74872000D03*
%TO.P,U2,9*%
%TO.N,+5V*%
X78740000Y-77412000D03*
%TO.P,U2,8*%
X78740000Y-78682000D03*
%TO.P,U2,7*%
X78740000Y-79952000D03*
%TO.P,U2,6*%
%TO.N,GND*%
X78740000Y-81222000D03*
%TO.P,U2,5*%
X78740000Y-82492000D03*
%TO.P,U2,4*%
X78740000Y-83762000D03*
%TO.P,U2,3*%
%TO.N,N/C*%
X78740000Y-85032000D03*
%TO.P,U2,2*%
X78740000Y-86302000D03*
%TO.P,U2,1*%
X78740000Y-87572000D03*
D11*
%TO.P,U2,*%
%TO.N,*%
X78740000Y-66522600D03*
X78740000Y-90932000D03*
%TD*%
D12*
%TO.P,U1,4*%
%TO.N,GND*%
X123952000Y-84328000D03*
%TO.P,U1,1*%
%TO.N,+12V*%
X83820000Y-66040000D03*
%TO.P,U1,2*%
%TO.N,GND*%
X83820000Y-84328000D03*
%TO.P,U1,3*%
%TO.N,+8V*%
X123952000Y-66040000D03*
%TD*%
D13*
%TO.P,FAN4,4*%
%TO.N,N/C*%
X151130000Y-86360000D03*
%TO.P,FAN4,3*%
X153670000Y-86360000D03*
%TO.P,FAN4,2*%
%TO.N,+8V*%
X156210000Y-86360000D03*
D14*
%TO.P,FAN4,1*%
%TO.N,GND*%
X158750000Y-86360000D03*
%TD*%
D13*
%TO.P,FAN3,4*%
%TO.N,N/C*%
X151130000Y-77470000D03*
%TO.P,FAN3,3*%
X153670000Y-77470000D03*
%TO.P,FAN3,2*%
%TO.N,+8V*%
X156210000Y-77470000D03*
D14*
%TO.P,FAN3,1*%
%TO.N,GND*%
X158750000Y-77470000D03*
%TD*%
D13*
%TO.P,FAN2,4*%
%TO.N,N/C*%
X151130000Y-68580000D03*
%TO.P,FAN2,3*%
X153670000Y-68580000D03*
%TO.P,FAN2,2*%
%TO.N,+8V*%
X156210000Y-68580000D03*
D14*
%TO.P,FAN2,1*%
%TO.N,GND*%
X158750000Y-68580000D03*
%TD*%
D13*
%TO.P,FAN1,4*%
%TO.N,N/C*%
X138430000Y-86360000D03*
%TO.P,FAN1,3*%
X140970000Y-86360000D03*
%TO.P,FAN1,2*%
%TO.N,+8V*%
X143510000Y-86360000D03*
D14*
%TO.P,FAN1,1*%
%TO.N,GND*%
X146050000Y-86360000D03*
%TD*%
D13*
%TO.P,5V_FAN4,4*%
%TO.N,N/C*%
X138430000Y-77470000D03*
%TO.P,5V_FAN4,3*%
X140970000Y-77470000D03*
%TO.P,5V_FAN4,2*%
%TO.N,+5V*%
X143510000Y-77470000D03*
D14*
%TO.P,5V_FAN4,1*%
%TO.N,GND*%
X146050000Y-77470000D03*
%TD*%
D13*
%TO.P,5V_FAN3,4*%
%TO.N,N/C*%
X138430000Y-68580000D03*
%TO.P,5V_FAN3,3*%
X140970000Y-68580000D03*
%TO.P,5V_FAN3,2*%
%TO.N,+5V*%
X143510000Y-68580000D03*
D14*
%TO.P,5V_FAN3,1*%
%TO.N,GND*%
X146050000Y-68580000D03*
%TD*%
D15*
%TO.P,5V_FAN2,4*%
%TO.N,N/C*%
X132080000Y-85090000D03*
%TO.P,5V_FAN2,3*%
X132080000Y-82550000D03*
%TO.P,5V_FAN2,2*%
%TO.N,+5V*%
X132080000Y-80010000D03*
D16*
%TO.P,5V_FAN2,1*%
%TO.N,GND*%
X132080000Y-77470000D03*
%TD*%
D15*
%TO.P,5V_FAN1,4*%
%TO.N,N/C*%
X132080000Y-73660000D03*
%TO.P,5V_FAN1,3*%
X132080000Y-71120000D03*
%TO.P,5V_FAN1,2*%
%TO.N,+5V*%
X132080000Y-68580000D03*
D16*
%TO.P,5V_FAN1,1*%
%TO.N,GND*%
X132080000Y-66040000D03*
%TD*%
D13*
%TO.P,12V_FAN4,4*%
%TO.N,N/C*%
X109220000Y-90170000D03*
%TO.P,12V_FAN4,3*%
X111760000Y-90170000D03*
%TO.P,12V_FAN4,2*%
%TO.N,+12V*%
X114300000Y-90170000D03*
D14*
%TO.P,12V_FAN4,1*%
%TO.N,GND*%
X116840000Y-90170000D03*
%TD*%
D13*
%TO.P,12V_FAN3,4*%
%TO.N,N/C*%
X121920000Y-90170000D03*
%TO.P,12V_FAN3,3*%
X124460000Y-90170000D03*
%TO.P,12V_FAN3,2*%
%TO.N,+12V*%
X127000000Y-90170000D03*
D14*
%TO.P,12V_FAN3,1*%
%TO.N,GND*%
X129540000Y-90170000D03*
%TD*%
D13*
%TO.P,12V_FAN2,4*%
%TO.N,N/C*%
X83820000Y-90170000D03*
%TO.P,12V_FAN2,3*%
X86360000Y-90170000D03*
%TO.P,12V_FAN2,2*%
%TO.N,+12V*%
X88900000Y-90170000D03*
D14*
%TO.P,12V_FAN2,1*%
%TO.N,GND*%
X91440000Y-90170000D03*
%TD*%
D13*
%TO.P,12V_FAN1,4*%
%TO.N,N/C*%
X96520000Y-90170000D03*
%TO.P,12V_FAN1,3*%
X99060000Y-90170000D03*
%TO.P,12V_FAN1,2*%
%TO.N,+12V*%
X101600000Y-90170000D03*
D14*
%TO.P,12V_FAN1,1*%
%TO.N,GND*%
X104140000Y-90170000D03*
%TD*%
D17*
%TO.N,*%
X73660000Y-78740000D03*
X162560000Y-78740000D03*
X162560000Y-66040000D03*
X162560000Y-91440000D03*
X73660000Y-91440000D03*
X73660000Y-66040000D03*
D18*
%TO.N,+5V*%
X85090000Y-80010000D03*
X91440000Y-80010000D03*
%TO.N,+8V*%
X121920000Y-77470000D03*
X134620000Y-91440000D03*
%TD*%
D19*
%TO.N,+12V*%
X88900000Y-82492000D02*
X88900000Y-90170000D01*
X101600000Y-87376000D02*
X101600000Y-90170000D01*
X96716000Y-82492000D02*
X101600000Y-87376000D01*
X114300000Y-87122000D02*
X114300000Y-90170000D01*
X109670000Y-82492000D02*
X114300000Y-87122000D01*
X112718000Y-82492000D02*
X117602000Y-87376000D01*
X117602000Y-87376000D02*
X125730000Y-87376000D01*
X127000000Y-88646000D02*
X127000000Y-90170000D01*
X125730000Y-87376000D02*
X127000000Y-88646000D01*
D20*
X78740000Y-69792000D02*
X78740000Y-71062000D01*
X78740000Y-71062000D02*
X78740000Y-72332000D01*
X80068000Y-69792000D02*
X83820000Y-66040000D01*
X78740000Y-69792000D02*
X80068000Y-69792000D01*
X78740000Y-72332000D02*
X81476000Y-72332000D01*
X88900000Y-79756000D02*
X88900000Y-82492000D01*
X81476000Y-72332000D02*
X88900000Y-79756000D01*
X88900000Y-82492000D02*
X112718000Y-82492000D01*
%TO.N,+5V*%
X78740000Y-77412000D02*
X78740000Y-78682000D01*
X78740000Y-78682000D02*
X78740000Y-79952000D01*
X85032000Y-79952000D02*
X85090000Y-80010000D01*
X78740000Y-79952000D02*
X85032000Y-79952000D01*
X92185001Y-80755001D02*
X122444999Y-80755001D01*
X91440000Y-80010000D02*
X92185001Y-80755001D01*
X122444999Y-80755001D02*
X123190000Y-80010000D01*
X124460000Y-77470000D02*
X128270000Y-73660000D01*
X123190000Y-80010000D02*
X124460000Y-80010000D01*
X124460000Y-80010000D02*
X124460000Y-77470000D01*
X124460000Y-80010000D02*
X132080000Y-80010000D01*
X128270000Y-73660000D02*
X128270000Y-68580000D01*
X128270000Y-68580000D02*
X132080000Y-68580000D01*
X143510000Y-72390000D02*
X143510000Y-77470000D01*
X138430000Y-72390000D02*
X143510000Y-72390000D01*
X134620000Y-68580000D02*
X138430000Y-72390000D01*
X132080000Y-68580000D02*
X134620000Y-68580000D01*
X143510000Y-72390000D02*
X143510000Y-68580000D01*
%TO.N,+8V*%
X123952000Y-66040000D02*
X127000000Y-66040000D01*
X121920000Y-71120000D02*
X121920000Y-77470000D01*
X127000000Y-66040000D02*
X121920000Y-71120000D01*
X134620000Y-91440000D02*
X143510000Y-91440000D01*
X143510000Y-91440000D02*
X143510000Y-86360000D01*
X156210000Y-88900000D02*
X156210000Y-86360000D01*
X153670000Y-91440000D02*
X156210000Y-88900000D01*
X143510000Y-91440000D02*
X153670000Y-91440000D01*
X156210000Y-86360000D02*
X156210000Y-77470000D01*
X156210000Y-77470000D02*
X156210000Y-68580000D01*
%TD*%
M02*
