%TF.GenerationSoftware,KiCad,Pcbnew,(5.1.10)-1*%
%TF.CreationDate,2021-07-17T09:46:38+08:00*%
%TF.ProjectId,FanDCControl,46616e44-4343-46f6-9e74-726f6c2e6b69,rev?*%
%TF.SameCoordinates,Original*%
%TF.FileFunction,Soldermask,Top*%
%TF.FilePolarity,Negative*%
%FSLAX46Y46*%
G04 Gerber Fmt 4.6, Leading zero omitted, Abs format (unit mm)*
G04 Created by KiCad (PCBNEW (5.1.10)-1) date 2021-07-17 09:46:38*
%MOMM*%
%LPD*%
G01*
G04 APERTURE LIST*
%ADD10C,0.700000*%
%ADD11C,2.540000*%
%ADD12C,3.200000*%
%ADD13R,3.000000X3.000000*%
%ADD14C,1.100000*%
%ADD15O,1.730000X2.030000*%
%ADD16R,1.730000X2.030000*%
%ADD17O,2.030000X1.730000*%
%ADD18R,2.030000X1.730000*%
G04 APERTURE END LIST*
D10*
%TO.C,U2*%
X78740000Y-71062000D03*
X78740000Y-72332000D03*
X78740000Y-69792000D03*
X78740000Y-76142000D03*
X78740000Y-73602000D03*
X78740000Y-74872000D03*
X78740000Y-77412000D03*
X78740000Y-78682000D03*
X78740000Y-79952000D03*
X78740000Y-81222000D03*
X78740000Y-82492000D03*
X78740000Y-83762000D03*
X78740000Y-85032000D03*
X78740000Y-86302000D03*
X78740000Y-87572000D03*
D11*
X78740000Y-66522600D03*
X78740000Y-90932000D03*
%TD*%
D12*
%TO.C,U1*%
X118872000Y-84328000D03*
X88900000Y-66040000D03*
D13*
X123952000Y-84328000D03*
X83820000Y-66040000D03*
X83820000Y-84328000D03*
X123952000Y-66040000D03*
%TD*%
D14*
%TO.C,FAN4*%
X153670000Y-88520000D03*
D15*
X151130000Y-86360000D03*
X153670000Y-86360000D03*
X156210000Y-86360000D03*
D16*
X158750000Y-86360000D03*
%TD*%
D14*
%TO.C,FAN3*%
X153670000Y-79630000D03*
D15*
X151130000Y-77470000D03*
X153670000Y-77470000D03*
X156210000Y-77470000D03*
D16*
X158750000Y-77470000D03*
%TD*%
D14*
%TO.C,FAN2*%
X153670000Y-70740000D03*
D15*
X151130000Y-68580000D03*
X153670000Y-68580000D03*
X156210000Y-68580000D03*
D16*
X158750000Y-68580000D03*
%TD*%
D14*
%TO.C,FAN1*%
X140970000Y-88520000D03*
D15*
X138430000Y-86360000D03*
X140970000Y-86360000D03*
X143510000Y-86360000D03*
D16*
X146050000Y-86360000D03*
%TD*%
D14*
%TO.C,5V_FAN4*%
X140970000Y-79630000D03*
D15*
X138430000Y-77470000D03*
X140970000Y-77470000D03*
X143510000Y-77470000D03*
D16*
X146050000Y-77470000D03*
%TD*%
D14*
%TO.C,5V_FAN3*%
X140970000Y-70740000D03*
D15*
X138430000Y-68580000D03*
X140970000Y-68580000D03*
X143510000Y-68580000D03*
D16*
X146050000Y-68580000D03*
%TD*%
D14*
%TO.C,5V_FAN2*%
X134240000Y-82550000D03*
D17*
X132080000Y-85090000D03*
X132080000Y-82550000D03*
X132080000Y-80010000D03*
D18*
X132080000Y-77470000D03*
%TD*%
D14*
%TO.C,5V_FAN1*%
X134240000Y-71120000D03*
D17*
X132080000Y-73660000D03*
X132080000Y-71120000D03*
X132080000Y-68580000D03*
D18*
X132080000Y-66040000D03*
%TD*%
D14*
%TO.C,12V_FAN4*%
X111760000Y-92330000D03*
D15*
X109220000Y-90170000D03*
X111760000Y-90170000D03*
X114300000Y-90170000D03*
D16*
X116840000Y-90170000D03*
%TD*%
D14*
%TO.C,12V_FAN3*%
X124460000Y-92330000D03*
D15*
X121920000Y-90170000D03*
X124460000Y-90170000D03*
X127000000Y-90170000D03*
D16*
X129540000Y-90170000D03*
%TD*%
D14*
%TO.C,12V_FAN2*%
X86360000Y-92330000D03*
D15*
X83820000Y-90170000D03*
X86360000Y-90170000D03*
X88900000Y-90170000D03*
D16*
X91440000Y-90170000D03*
%TD*%
D14*
%TO.C,12V_FAN1*%
X99060000Y-92330000D03*
D15*
X96520000Y-90170000D03*
X99060000Y-90170000D03*
X101600000Y-90170000D03*
D16*
X104140000Y-90170000D03*
%TD*%
M02*
